<?xml version="1.0" encoding="utf-8"?>
<!-- Svg Vector Icons : http://www.onlinewebfonts.com/icon -->
<!DOCTYPE svg PUBLIC "-//W3C//DTD SVG 1.1//EN" "http://www.w3.org/Graphics/SVG/1.1/DTD/svg11.dtd">
<svg version="1.1" xmlns="http://www.w3.org/2000/svg" xmlns:xlink="http://www.w3.org/1999/xlink" x="0px" y="0px" viewBox="0 0 1000 1000" enable-background="new 0 0 1000 1000" xml:space="preserve">
<metadata> Svg Vector Icons : http://www.onlinewebfonts.com/icon </metadata>
<g><g transform="translate(0.000000,511.000000) scale(0.100000,-0.100000)"><path d="M4928.3,3737.2v-698l-573.7-573.7L3781,1891.9v-303.6v-305.9H2251.2H721.5v-2294.6v-2294.6H566.1H410.7v-155.4v-155.4h1685.1H3781v-131.5v-131.5H1940.5H100v-167.3v-167.3h4900h4900v167.3v167.3H8059.5H6219v131.5v131.5h1685.1h1685.1v155.4v155.4h-155.4h-155.4v2294.6v2294.6H7748.8H6219v305.9v303.6l-573.7,573.7l-573.7,573.7v327.5v329.8l339.4,169.7l341.8,172.1l-394.4,198.4c-217.5,107.6-401.6,198.4-411.1,198.4C4935.5,4437.5,4928.3,4122,4928.3,3737.2z M5298.8,1810.6c219.9-121.9,351.4-403.9,298.8-638.2c-69.3-308.3-289.2-487.6-597.6-487.6c-181.7,0-310.7,50.2-427.9,169.7c-337,334.6-172.1,910.7,291.6,1027.8C4985.7,1913.4,5169.7,1882.4,5298.8,1810.6z M1940.5-235.4v-609.5h-310.7H1319v592.8c0,327.5,7.2,602.3,16.7,609.5c7.2,9.6,148.2,16.7,310.7,16.7h294V-235.4z M2848.8-235.4v-609.5H2550h-298.8v609.5v609.5H2550h298.8V-235.4z M3781-235.4v-609.5h-310.7h-310.7v609.5v609.5h310.7H3781V-235.4z M6840.5-235.4v-609.5h-310.7H6219v609.5v609.5h310.7h310.7V-235.4z M7748.8-235.4v-609.5H7450h-298.8v609.5v609.5H7450h298.8V-235.4z M8676.2-240.2l4.8-604.7h-310.7h-310.7v609.5v611.9l305.9-7.2l303.6-7.2L8676.2-240.2z M4880.5-2087.8v-908.3h-253.4h-251l7.2,688.4c7.2,743.4,4.8,731.4,155.4,932.2c55,71.7,246.2,193.6,313.1,196C4873.3-1179.5,4880.5-1375.5,4880.5-2087.8z M5310.7-1258.4c155.4-90.8,272.5-265.3,296.4-437.4c7.2-62.1,14.3-380,14.3-705.1v-595.2h-251h-251v908.3c0,726.6,7.2,908.3,31.1,908.3C5167.3-1179.5,5239-1215.4,5310.7-1258.4z M1940.5-2075.9v-609.5h-310.7H1319v609.5v609.5h310.7h310.7V-2075.9z M2848.8-2075.9v-609.5H2550h-298.8v609.5v609.5H2550h298.8V-2075.9z M3781-2075.9v-609.5h-310.7h-310.7v609.5v609.5h310.7H3781V-2075.9z M6840.5-2075.9v-609.5h-310.7H6219v609.5v609.5h310.7h310.7V-2075.9z M7748.8-2075.9v-609.5H7450h-298.8v609.5v609.5H7450h298.8V-2075.9z M8681-2075.9v-609.5h-310.7h-310.7v609.5v609.5h310.7H8681V-2075.9z"/><path d="M4918.7,1674.4c-23.9-23.9-38.2-78.9-38.2-155.4v-117.1h-117.1c-126.7,0-193.6-40.6-193.6-117.1c0-88.4,76.5-121.9,282-121.9c253.4,0,267.7,14.3,267.7,274.9c0,210.3-28.7,274.9-119.5,274.9C4976.1,1712.7,4937.9,1695.9,4918.7,1674.4z"/></g></g>
</svg>